<svg width="22" height="22" viewBox="0 0 22 22" fill="none" xmlns="http://www.w3.org/2000/svg">
<path d="M6.48174 12.6876L9.08318 3.14165C9.34241 2.19029 10.3161 1.63338 11.2549 1.89947L18.8818 4.0612C19.8098 4.32424 20.3564 5.29381 20.1081 6.23646L17.5117 16.0929C17.2523 17.077 16.2324 17.6414 15.2741 17.331L7.64228 14.8588C6.74269 14.5674 6.23057 13.6093 6.48174 12.6876Z" stroke="#213C5C" stroke-width="1.375"/>
<path d="M4.99193 6.41699H3.68122C2.47303 6.41699 1.58972 7.53952 1.89162 8.69125L4.54185 18.8017C4.79228 19.7571 5.7705 20.3419 6.74704 20.1201L10.9987 19.1541" stroke="#213C5C" stroke-width="1.375" stroke-linecap="round"/>
<path d="M11.0039 6.41699L17.1737 8.17979" stroke="#213C5C" stroke-width="1.375" stroke-linecap="round"/>
<path d="M10.1758 10.1357L14.3347 11.4045" stroke="#213C5C" stroke-width="1.375" stroke-linecap="round"/>
</svg>
